<svg width="507" height="181" viewBox="0 0 507 181" fill="none" xmlns="http://www.w3.org/2000/svg">
<path d="M103.508 148.25H0.757813L2.25781 139.5L143.758 0.49999H155.508L131.508 137H159.008L157.008 148.25H129.508L124.258 178H98.2578L103.508 148.25ZM105.508 137L122.758 39.5L24.2578 137H105.508ZM246.336 180.5C224.336 180.5 207.503 174.917 195.836 163.75C184.336 152.417 178.586 136.167 178.586 115C178.586 92.6667 182.753 72.8333 191.086 55.5C199.586 38.1667 211.336 24.6667 226.336 15C241.503 5.33333 258.753 0.49999 278.086 0.49999C299.919 0.49999 316.586 6.16666 328.086 17.5C339.753 28.6667 345.586 44.75 345.586 65.75C345.586 88.0833 341.336 108 332.836 125.5C324.503 142.833 312.836 156.333 297.836 166C282.836 175.667 265.669 180.5 246.336 180.5ZM248.086 170C261.419 170 273.503 165.333 284.336 156C295.169 146.667 303.669 133.917 309.836 117.75C316.169 101.583 319.336 83.6667 319.336 64C319.336 47 315.586 33.9167 308.086 24.75C300.753 15.5833 290.086 11 276.086 11C262.919 11 250.836 15.6667 239.836 25C229.003 34.1667 220.419 46.8333 214.086 63C207.919 79.1667 204.836 97.1667 204.836 117C204.836 134.167 208.503 147.333 215.836 156.5C223.336 165.5 234.086 170 248.086 170ZM451.164 148.25H348.414L349.914 139.5L491.414 0.49999H503.164L479.164 137H506.664L504.664 148.25H477.164L471.914 178H445.914L451.164 148.25ZM453.164 137L470.414 39.5L371.914 137H453.164Z" fill="#8CA2C0"/>
</svg>
