<svg width="108" height="24" viewBox="0 0 108 24" fill="none" xmlns="http://www.w3.org/2000/svg">
<path d="M5.4 19.24C4.52 19.24 3.74667 19.1 3.08 18.82C2.41333 18.5267 1.88 18.1267 1.48 17.62C1.08 17.1133 0.84 16.5267 0.76 15.86H3.34C3.42 16.2467 3.63333 16.58 3.98 16.86C4.34 17.1267 4.8 17.26 5.36 17.26C5.92 17.26 6.32667 17.1467 6.58 16.92C6.84667 16.6933 6.98 16.4333 6.98 16.14C6.98 15.7133 6.79333 15.4267 6.42 15.28C6.04667 15.12 5.52667 14.9667 4.86 14.82C4.43333 14.7267 4 14.6133 3.56 14.48C3.12 14.3467 2.71333 14.18 2.34 13.98C1.98 13.7667 1.68667 13.5 1.46 13.18C1.23333 12.8467 1.12 12.44 1.12 11.96C1.12 11.08 1.46667 10.34 2.16 9.74C2.86667 9.14 3.85333 8.84 5.12 8.84C6.29333 8.84 7.22667 9.11333 7.92 9.66C8.62667 10.2067 9.04667 10.96 9.18 11.92H6.76C6.61333 11.1867 6.06 10.82 5.1 10.82C4.62 10.82 4.24667 10.9133 3.98 11.1C3.72667 11.2867 3.6 11.52 3.6 11.8C3.6 12.0933 3.79333 12.3267 4.18 12.5C4.56667 12.6733 5.08 12.8333 5.72 12.98C6.41333 13.14 7.04667 13.32 7.62 13.52C8.20667 13.7067 8.67333 13.9933 9.02 14.38C9.36667 14.7533 9.54 15.2933 9.54 16C9.55333 16.6133 9.39333 17.1667 9.06 17.66C8.72667 18.1533 8.24667 18.54 7.62 18.82C6.99333 19.1 6.25333 19.24 5.4 19.24ZM16.7778 19.24C15.7778 19.24 14.8911 19.0267 14.1178 18.6C13.3445 18.1733 12.7378 17.5733 12.2978 16.8C11.8578 16.0267 11.6378 15.1333 11.6378 14.12C11.6378 13.0933 11.8511 12.18 12.2778 11.38C12.7178 10.58 13.3178 9.96 14.0778 9.52C14.8511 9.06667 15.7578 8.84 16.7978 8.84C17.7711 8.84 18.6311 9.05333 19.3778 9.48C20.1245 9.90667 20.7045 10.4933 21.1178 11.24C21.5445 11.9733 21.7578 12.7933 21.7578 13.7C21.7578 13.8467 21.7511 14 21.7378 14.16C21.7378 14.32 21.7311 14.4867 21.7178 14.66H14.1778C14.2311 15.4333 14.4978 16.04 14.9778 16.48C15.4711 16.92 16.0645 17.14 16.7578 17.14C17.2778 17.14 17.7111 17.0267 18.0578 16.8C18.4178 16.56 18.6845 16.2533 18.8578 15.88H21.4578C21.2711 16.5067 20.9578 17.08 20.5178 17.6C20.0911 18.1067 19.5578 18.5067 18.9178 18.8C18.2911 19.0933 17.5778 19.24 16.7778 19.24ZM16.7978 10.92C16.1711 10.92 15.6178 11.1 15.1378 11.46C14.6578 11.8067 14.3511 12.34 14.2178 13.06H19.1578C19.1178 12.4067 18.8778 11.8867 18.4378 11.5C17.9978 11.1133 17.4511 10.92 16.7978 10.92ZM27.4809 19.24C26.6276 19.24 25.9276 19.1067 25.3809 18.84C24.8343 18.56 24.4276 18.1933 24.1609 17.74C23.8943 17.2867 23.7609 16.7867 23.7609 16.24C23.7609 15.32 24.1209 14.5733 24.8409 14C25.5609 13.4267 26.6409 13.14 28.0809 13.14H30.6009V12.9C30.6009 12.22 30.4076 11.72 30.0209 11.4C29.6343 11.08 29.1543 10.92 28.5809 10.92C28.0609 10.92 27.6076 11.0467 27.2209 11.3C26.8343 11.54 26.5943 11.9 26.5009 12.38H24.0009C24.0676 11.66 24.3076 11.0333 24.7209 10.5C25.1476 9.96667 25.6943 9.56 26.3609 9.28C27.0276 8.98667 27.7743 8.84 28.6009 8.84C30.0143 8.84 31.1276 9.19333 31.9409 9.9C32.7543 10.6067 33.1609 11.6067 33.1609 12.9V19H30.9809L30.7409 17.4C30.4476 17.9333 30.0343 18.3733 29.5009 18.72C28.9809 19.0667 28.3076 19.24 27.4809 19.24ZM28.0609 17.24C28.7943 17.24 29.3609 17 29.7609 16.52C30.1743 16.04 30.4343 15.4467 30.5409 14.74H28.3609C27.6809 14.74 27.1943 14.8667 26.9009 15.12C26.6076 15.36 26.4609 15.66 26.4609 16.02C26.4609 16.4067 26.6076 16.7067 26.9009 16.92C27.1943 17.1333 27.5809 17.24 28.0609 17.24ZM35.7539 19V9.08H38.0339L38.2739 10.94C38.6339 10.3 39.1206 9.79333 39.7339 9.42C40.3606 9.03333 41.0939 8.84 41.9339 8.84V11.54H41.2139C40.6539 11.54 40.1539 11.6267 39.7139 11.8C39.2739 11.9733 38.9272 12.2733 38.6739 12.7C38.4339 13.1267 38.3139 13.72 38.3139 14.48V19H35.7539ZM48.5178 19.24C47.5045 19.24 46.6111 19.02 45.8378 18.58C45.0645 18.14 44.4511 17.5267 43.9978 16.74C43.5578 15.9533 43.3378 15.0533 43.3378 14.04C43.3378 13.0267 43.5578 12.1267 43.9978 11.34C44.4511 10.5533 45.0645 9.94 45.8378 9.5C46.6111 9.06 47.5045 8.84 48.5178 8.84C49.7845 8.84 50.8511 9.17333 51.7178 9.84C52.5845 10.4933 53.1378 11.4 53.3778 12.56H50.6778C50.5445 12.08 50.2778 11.7067 49.8778 11.44C49.4911 11.16 49.0311 11.02 48.4978 11.02C47.7911 11.02 47.1911 11.2867 46.6978 11.82C46.2045 12.3533 45.9578 13.0933 45.9578 14.04C45.9578 14.9867 46.2045 15.7267 46.6978 16.26C47.1911 16.7933 47.7911 17.06 48.4978 17.06C49.0311 17.06 49.4911 16.9267 49.8778 16.66C50.2778 16.3933 50.5445 16.0133 50.6778 15.52H53.3778C53.1378 16.64 52.5845 17.54 51.7178 18.22C50.8511 18.9 49.7845 19.24 48.5178 19.24ZM55.8 19V4.6H58.36V10.6C58.6933 10.0533 59.14 9.62667 59.7 9.32C60.2733 9 60.9267 8.84 61.66 8.84C62.8867 8.84 63.8333 9.22667 64.5 10C65.18 10.7733 65.52 11.9067 65.52 13.4V19H62.98V13.64C62.98 12.7867 62.8067 12.1333 62.46 11.68C62.1267 11.2267 61.5933 11 60.86 11C60.14 11 59.54 11.2533 59.06 11.76C58.5933 12.2667 58.36 12.9733 58.36 13.88V19H55.8ZM69.218 19.14C68.7513 19.14 68.3646 18.9933 68.058 18.7C67.7646 18.4067 67.618 18.0533 67.618 17.64C67.618 17.2133 67.7646 16.8533 68.058 16.56C68.3646 16.2667 68.7513 16.12 69.218 16.12C69.6846 16.12 70.0646 16.2667 70.358 16.56C70.6646 16.8533 70.818 17.2133 70.818 17.64C70.818 18.0533 70.6646 18.4067 70.358 18.7C70.0646 18.9933 69.6846 19.14 69.218 19.14ZM77.6327 19.24C76.6993 19.24 75.866 19.0133 75.1327 18.56C74.3993 18.1067 73.8193 17.4867 73.3927 16.7C72.966 15.9133 72.7527 15.02 72.7527 14.02C72.7527 13.02 72.966 12.1333 73.3927 11.36C73.8193 10.5733 74.3993 9.96 75.1327 9.52C75.866 9.06667 76.6993 8.84 77.6327 8.84C78.3793 8.84 79.0327 8.98 79.5927 9.26C80.1527 9.54 80.606 9.93333 80.9527 10.44V4.6H83.5127V19H81.2327L80.9527 17.58C80.6327 18.02 80.206 18.4067 79.6727 18.74C79.1527 19.0733 78.4727 19.24 77.6327 19.24ZM78.1727 17C78.9993 17 79.6727 16.7267 80.1927 16.18C80.726 15.62 80.9927 14.9067 80.9927 14.04C80.9927 13.1733 80.726 12.4667 80.1927 11.92C79.6727 11.36 78.9993 11.08 78.1727 11.08C77.3593 11.08 76.686 11.3533 76.1527 11.9C75.6193 12.4467 75.3527 13.1533 75.3527 14.02C75.3527 14.8867 75.6193 15.6 76.1527 16.16C76.686 16.72 77.3593 17 78.1727 17ZM91.0895 19.24C90.0895 19.24 89.2029 19.0267 88.4295 18.6C87.6562 18.1733 87.0495 17.5733 86.6095 16.8C86.1695 16.0267 85.9495 15.1333 85.9495 14.12C85.9495 13.0933 86.1629 12.18 86.5895 11.38C87.0295 10.58 87.6295 9.96 88.3895 9.52C89.1629 9.06667 90.0695 8.84 91.1095 8.84C92.0829 8.84 92.9429 9.05333 93.6895 9.48C94.4362 9.90667 95.0162 10.4933 95.4295 11.24C95.8562 11.9733 96.0695 12.7933 96.0695 13.7C96.0695 13.8467 96.0629 14 96.0495 14.16C96.0495 14.32 96.0429 14.4867 96.0295 14.66H88.4895C88.5429 15.4333 88.8095 16.04 89.2895 16.48C89.7829 16.92 90.3762 17.14 91.0695 17.14C91.5895 17.14 92.0229 17.0267 92.3695 16.8C92.7295 16.56 92.9962 16.2533 93.1695 15.88H95.7695C95.5829 16.5067 95.2695 17.08 94.8295 17.6C94.4029 18.1067 93.8695 18.5067 93.2295 18.8C92.6029 19.0933 91.8895 19.24 91.0895 19.24ZM91.1095 10.92C90.4829 10.92 89.9295 11.1 89.4495 11.46C88.9695 11.8067 88.6629 12.34 88.5295 13.06H93.4695C93.4295 12.4067 93.1895 11.8867 92.7495 11.5C92.3095 11.1133 91.7629 10.92 91.1095 10.92ZM100.662 19L97.022 9.08H99.702L102.222 16.58L104.742 9.08H107.422L103.762 19H100.662Z" fill="#7B95B7"/>
</svg>
